<svg xmlns="http://www.w3.org/2000/svg" viewBox="0 0 32 32">
<title>compass</title>
<g id="compass">
<rect width="32" height="32" style="fill:none"/>
<path fill="current" d="M28.0407,17.0034a1.0034,1.0034,0,0,1,0-2.0068H31A15.05,15.05,0,0,0,17.0034,1V3.9593a1.0034,1.0034,0,0,1-2.0068,0V1A15.05,15.05,0,0,0,1,14.9966H3.9593a1.0034,1.0034,0,1,1,0,2.0068H1A15.05,15.05,0,0,0,14.9966,31V28.0407a1.0034,1.0034,0,1,1,2.0068,0V31A15.05,15.05,0,0,0,31,17.0034ZM22.5891,10.74l-3.5476,7.8041a1.0006,1.0006,0,0,1-.4978.4978L10.74,22.5891A1.0045,1.0045,0,0,1,9.4109,21.26l3.5476-7.8041a1.0006,1.0006,0,0,1,.4978-.4978L21.26,9.4109A1.0038,1.0038,0,0,1,22.5891,10.74Z" />
</g>
</svg>