<svg xmlns="http://www.w3.org/2000/svg" viewBox="0 0 32 32"><title>footstep</title><g id="footstep"><rect width="32" height="32" style="fill:none"/><path d="M9,5a5.0059,5.0059,0,0,0-5,5v6a.9961.9961,0,0,0,.0518.3164l1,3a.999.999,0,0,0,.7841.67l6,1a.9993.9993,0,0,0,1.1338-.7436l1-4A.9729.9729,0,0,0,14,16V10A5.0059,5.0059,0,0,0,9,5Z" fill="current"/><path d="M13.124,23.0078l-8-1A1,1,0,0,0,4,23v3a5,5,0,0,0,10,0V24A1,1,0,0,0,13.124,23.0078Z" fill="current"/><path d="M23,1a5.0059,5.0059,0,0,0-5,5v6a.9729.9729,0,0,0,.03.2427l1,4a.9993.9993,0,0,0,1.1338.7436l6-1a.999.999,0,0,0,.7841-.67l1-3A.9961.9961,0,0,0,28,12V6A5.0059,5.0059,0,0,0,23,1Z" fill="current"/><path d="M26.876,18.0078l-8,1A1,1,0,0,0,18,20v2a5,5,0,0,0,10,0V19A1,1,0,0,0,26.876,18.0078Z" fill="current"/></g></svg>