<svg xmlns="http://www.w3.org/2000/svg" viewBox="0 0 32 32"><title>forest</title><g id="forest"><rect width="32" height="32" style="fill:none"/><path d="M30.928,25.6237,27.4765,16.995h1.6064a1.001,1.001,0,0,0,.8818-1.4717l-6.4168-12a1.0005,1.0005,0,0,0-1.7694.0112l-3.6952,7.1272L19.6411,13.56A3.0045,3.0045,0,0,1,17.627,17.918l3.1035,6.84a2.9752,2.9752,0,0,1,.0913,2.2375h.8443V30a1,1,0,0,0,2,0V26.9953h6.3332A1.0014,1.0014,0,0,0,30.928,25.6237Z" fill="current"/><path d="M14.5527,15.9829h2.4465a1.0019,1.0019,0,0,0,.88-1.4764L10.88,1.4863a1.04,1.04,0,0,0-1.7605,0l-6.9992,13.02a1.0019,1.0019,0,0,0,.88,1.4764H5.4473L1.0908,25.5842A1.0017,1.0017,0,0,0,2.0009,27H9v3a1,1,0,0,0,2,0V27h6.9991a1.0018,1.0018,0,0,0,.91-1.4158Z" fill="current"/></g></svg>