<svg xmlns="http://www.w3.org/2000/svg" viewBox="0 0 32 32"><title>wave</title><g id="wave"><rect width="32" height="32" style="fill:none"/><circle cx="9" cy="9" r="3" fill="current"/><path d="M9,5A1,1,0,0,1,8,4V2a1,1,0,0,1,2,0V4A1,1,0,0,1,9,5Z" fill="current"/><path d="M9,17a1,1,0,0,1-1-1V14a1,1,0,0,1,2,0v2A1,1,0,0,1,9,17Z" fill="current"/><path d="M4,10H2A1,1,0,0,1,2,8H4a1,1,0,0,1,0,2Z" fill="current"/><path d="M16,10H14a1,1,0,0,1,0-2h2a1,1,0,0,1,0,2Z" fill="current"/><path d="M30,30.98a11.3544,11.3544,0,0,1-5.0615-1.07,10.2855,10.2855,0,0,0-8.5479,0,12.2907,12.2907,0,0,1-10.1211,0A9.3634,9.3634,0,0,0,2,29a.99.99,0,1,1,0-1.98,11.3333,11.3333,0,0,1,5.0576,1.07,10.276,10.276,0,0,0,8.5459,0,12.2943,12.2943,0,0,1,10.1221,0A9.3888,9.3888,0,0,0,30,29a.99.99,0,1,1,0,1.98Z" fill="current"/><path d="M30,26.98a11.3544,11.3544,0,0,1-5.0615-1.07,10.2855,10.2855,0,0,0-8.5479,0,12.2907,12.2907,0,0,1-10.1211,0A9.3634,9.3634,0,0,0,2,25a.99.99,0,1,1,0-1.98,11.3333,11.3333,0,0,1,5.0576,1.07,10.276,10.276,0,0,0,8.5459,0,12.2943,12.2943,0,0,1,10.1221,0A9.3888,9.3888,0,0,0,30,25a.99.99,0,1,1,0,1.98Z" fill="current"/></g></svg>